<?xml version="1.0" encoding="UTF-8"?>
<!DOCTYPE svg PUBLIC "-//W3C//DTD SVG 1.1//EN" "http://www.w3.org/Graphics/SVG/1.1/DTD/svg11.dtd">
<!-- Creator: CorelDRAW 2019 (64-Bit) -->
<svg xmlns="http://www.w3.org/2000/svg" xml:space="preserve" width="1468px" height="480px" version="1.1" style="shape-rendering:geometricPrecision; text-rendering:geometricPrecision; image-rendering:optimizeQuality; fill-rule:evenodd; clip-rule:evenodd"
viewBox="0 0 1468 480.01"
 xmlns:xlink="http://www.w3.org/1999/xlink"
 xmlns:xodm="http://www.corel.com/coreldraw/odm/2003">
 <defs>
  <style type="text/css">
   <![CDATA[
    .fil0 {fill:#FEFEFE}
    .fil2 {fill:#003399}
    .fil1 {fill:#003399;fill-rule:nonzero}
   ]]>
  </style>
 </defs>
 <g id="Layer_x0020_1">
  <metadata id="CorelCorpID_0Corel-Layer"/>
  <path class="fil0" d="M243.38 16.42c-0.48,0 -0.97,0 -1.45,0 -64.47,0 -126.52,14.97 -186.64,45.15 -24.38,57.95 -38.15,116.86 -38.87,176.99 -0.97,59.64 11.35,120.72 38.63,183.02 62.78,27.28 125.55,41.29 188.33,42.01 62.78,-0.72 125.55,-14.73 188.33,-42.01 27.28,-62.3 39.6,-123.38 38.63,-183.02 -0.72,-60.13 -14.49,-119.04 -38.87,-176.99 -60.12,-30.18 -122.18,-45.15 -186.64,-45.15 -0.48,0 -0.97,0 -1.45,0z"/>
  <path class="fil1" d="M45.15 48.29l0 0c63.26,-32.35 128.93,-48.29 196.78,-48.29 0.48,0 0.97,0 1.45,0 0.48,0 0.97,0 1.45,0 67.85,0 133.52,15.94 196.78,48.29l0 0 3.86 4.1c25.84,60.85 40.56,122.91 41.29,185.93 0,1.2 0,2.17 0,3.38l0 4.34c-0.24,60.61 -13.28,122.42 -41.29,185.2l-4.34 4.1c-65.92,29.22 -131.84,43.95 -197.75,44.67 -65.92,-0.72 -131.83,-15.45 -197.75,-44.67l-4.34 -4.1c-28.01,-62.78 -41.05,-124.59 -41.29,-185.2l0 -4.34c0,-1.21 0,-2.18 0,-3.38 0.73,-63.02 15.45,-125.08 41.29,-185.93l3.86 -4.1zm198.23 -31.87c-0.48,0 -0.97,0 -1.45,0 -64.47,0 -126.52,14.97 -186.64,45.15 -24.38,57.95 -38.15,116.86 -38.87,176.99 -0.97,59.64 11.35,120.72 38.63,183.02 62.78,27.28 125.55,41.29 188.33,42.01 62.78,-0.72 125.55,-14.73 188.33,-42.01 27.28,-62.3 39.6,-123.38 38.63,-183.02 -0.72,-60.13 -14.49,-119.04 -38.87,-176.99 -60.12,-30.18 -122.18,-45.15 -186.64,-45.15 -0.48,0 -0.97,0 -1.45,0z"/>
  <path class="fil2" d="M247.72 374.01c-3.37,-46.11 -1.2,-94.16 -14.96,-138.11 -12.8,-41.05 -61.33,-64.47 -62.3,-109.62 -0.96,-35.25 25.84,-76.06 76.06,-76.06 47.08,-0.24 76.3,34.05 79.68,72.2 4.1,44.18 -49.5,73.88 -63.5,115.89 -14.49,42.98 -10.39,90.55 -14.98,135.7z"/>
  <path class="fil2" d="M266.32 362.91c-1.94,-40.09 -1.94,-78.48 9.17,-112.52 12.32,-38.64 37.91,-71.23 77.02,-81.85 26.8,-7.25 66.16,24.14 59.88,56.25 -5.31,25.84 -31.14,56.26 -72.67,59.64 -19.32,1.69 -27.53,17.15 -39.6,26.08 54.08,-5.31 89.09,-26.56 113.48,-48.77 3.62,18.83 6.04,50.46 -8.69,61.33 -28.98,20.52 -55.78,3.86 -89.82,13.52 -19.07,5.55 -30.91,17.62 -48.77,26.32z"/>
  <path class="fil2" d="M229.37 362.91c2.18,-40.09 1.94,-78.48 -8.93,-112.52 -12.31,-38.64 -37.9,-71.23 -77.02,-81.85 -26.8,-7.25 -66.4,24.14 -59.88,56.25 5.31,25.84 31.15,56.26 72.68,59.64 19.07,1.69 27.52,17.15 39.59,26.08 -54.32,-5.31 -89.09,-26.56 -113.48,-48.77 -3.62,18.83 -6.03,50.46 8.7,61.33 28.97,20.52 55.77,3.86 89.81,13.52 19.08,5.55 30.67,17.62 48.53,26.32z"/>
  <path class="fil2" d="M358.07 422.54l0 -6.51 4.83 -1.21 -4.83 -7.24 0 -12.08 21.73 30.18 -7.73 1.94 -5.31 -7.49 -8.69 2.41zm0 -27.04l0 0 0 12.08 -3.38 -4.83 -1.45 14.48 4.83 -1.2 0 6.51 -5.56 1.21 -0.96 8.94 -7.73 1.93 5.07 -39.36 7.73 -1.93 1.45 2.17zm-71.95 48.05l0 0 0 -6.28 1.69 0c2.65,-0.24 4.34,-0.48 5.07,-0.72 0.96,-0.24 1.93,-0.97 2.41,-1.69 0.73,-0.97 0.97,-1.93 0.97,-3.14 -0.24,-1.21 -0.49,-2.17 -1.21,-2.9 -0.48,-0.72 -1.45,-1.2 -2.41,-1.45 -0.97,-0.24 -3.14,-0.24 -6.52,0l0 -6.27c1.93,0 3.13,-0.25 3.62,-0.25 1.2,-0.24 2.17,-0.96 2.9,-1.69 0.72,-0.72 0.96,-1.69 0.72,-2.89 0,-1.21 -0.48,-2.18 -1.21,-2.66 -0.48,-0.72 -1.45,-1.21 -2.9,-1.21 -0.48,0 -1.44,0 -3.13,0.25l0 -6.28c2.65,-0.24 4.58,-0.24 5.79,0 1.45,0 2.9,0.48 4.11,1.21 1.2,0.48 2.17,1.44 3.13,2.65 0.73,1.21 1.21,2.66 1.45,4.35 0.24,1.69 -0.24,3.38 -0.96,4.83 -0.73,1.44 -1.93,2.65 -3.62,3.62 2.41,0.48 4.34,1.45 5.55,2.9 1.45,1.44 2.17,3.13 2.41,5.31 0,1.69 -0.24,3.38 -0.72,5.07 -0.73,1.69 -1.69,2.89 -2.9,4.1 -1.45,0.97 -2.9,1.69 -4.83,2.18 -1.2,0.24 -4.34,0.48 -8.93,0.96l-0.48 0zm45.63 -20.28l0 0 7.48 0.97c-0.48,4.1 -1.69,7.48 -3.86,9.89 -2.17,2.18 -5.31,3.87 -9.17,4.59 -4.83,0.73 -9.18,-0.24 -12.8,-2.89 -3.86,-2.9 -6.04,-7.01 -7.24,-12.8 -0.97,-6.04 -0.25,-11.11 2.41,-14.97 2.42,-3.87 6.28,-6.28 11.35,-7.25 4.59,-0.72 8.21,0 11.59,2.18 1.93,1.2 3.62,3.14 4.83,6.03l-7 2.9c-0.73,-1.69 -1.94,-3.14 -3.39,-3.86 -1.69,-0.97 -3.38,-1.21 -5.31,-0.97 -2.65,0.49 -4.58,1.93 -6.03,4.11 -1.45,2.41 -1.69,5.55 -0.97,9.9 0.97,4.58 2.42,7.72 4.35,9.41 1.93,1.69 4.34,2.42 7,1.94 1.93,-0.49 3.38,-1.45 4.59,-2.9 1.2,-1.45 1.93,-3.62 2.17,-6.28zm-45.63 -16.9l0 0 0 6.28c-0.97,0 -1.94,0.24 -3.14,0.24l-4.35 0.48 0.73 8.45 5.06 -0.48c0.49,0 1.21,0 1.7,-0.24l0 6.27c0,0 0,0 -0.25,0l-5.79 0.49 0.72 9.9 5.32 -0.49 0 6.28 -12.08 1.21 -3.38 -36.94 14.73 -1.21c0.24,-0.24 0.48,-0.24 0.73,-0.24zm-46.6 24.38l0 0 0 -6.27c1.69,0 2.65,-0.24 3.38,-0.49 0.96,-0.24 1.69,-0.96 2.41,-1.69 0.48,-0.96 0.72,-1.93 0.72,-2.89 0.25,-1.45 -0.24,-2.42 -0.96,-3.38 -0.72,-0.97 -1.69,-1.45 -2.9,-1.7 -0.72,0 -1.45,-0.24 -2.65,-0.24l0 -6.27c3.62,0 5.79,0.24 7,0.72 2.17,0.48 3.86,1.69 5.31,3.62 1.45,1.93 2.17,4.35 1.93,7.25 0,2.17 -0.48,4.1 -1.21,5.79 -0.96,1.45 -1.93,2.66 -3.13,3.62 -1.45,0.73 -2.66,1.21 -4.11,1.69 -1.45,0.24 -3.38,0.24 -5.79,0.24zm0 -22.93l0 0 0 6.27c-0.73,0 -1.69,0 -2.9,0l-3.62 -0.24 0 10.63 3.86 0c0.97,0 1.93,0 2.66,0l0 6.27c-0.49,0 -1.21,0 -1.93,0l-4.83 0 -0.25 14.01 -7.48 -0.24 0.72 -36.94 11.84 0.24c0.72,0 1.44,0 1.93,0zm-69.78 19.31l0 0 0 -11.35c2.17,0.49 3.62,0.49 4.34,0.49 0.97,-0.24 1.69,-0.49 2.42,-1.21 0.48,-0.73 0.96,-1.45 1.21,-2.66 0.24,-1.2 0,-2.17 -0.49,-3.14 -0.48,-0.96 -1.45,-1.44 -2.65,-1.93 -0.49,-0.24 -2.18,-0.48 -4.83,-0.96l0 -6.28 3.14 0.48c3.86,0.73 6.52,1.45 8.21,2.42 1.69,0.96 2.89,2.41 3.62,4.34 0.72,1.69 0.96,3.87 0.48,6.04 -0.48,2.66 -1.69,4.83 -3.62,6.28 -1.69,1.45 -4.35,2.17 -7.73,2.17 1.45,1.21 2.66,2.42 3.38,3.62 0.97,1.45 1.93,3.62 3.14,6.76l3.14 7.97 -8.69 -1.69 -3.86 -8.93c-0.49,-0.73 -0.73,-1.69 -1.21,-2.42zm21.24 -22.94l0 0 7.25 0.73 -1.69 20.04c-0.24,3.14 -0.24,5.31 -0.24,6.04 0.24,1.69 0.96,2.89 1.93,3.86 1.21,1.21 2.66,1.69 4.83,1.93 2.17,0.24 3.86,-0.24 4.83,-0.96 1.2,-0.73 1.93,-1.7 2.41,-2.9 0.24,-1.21 0.48,-3.38 0.72,-6.28l1.7 -20.52 7.48 0.72 -1.69 19.32c-0.24,4.58 -0.72,7.72 -1.45,9.41 -0.48,1.69 -1.45,3.38 -2.41,4.35 -1.21,1.21 -2.9,2.17 -4.83,2.66 -1.69,0.72 -4.11,0.72 -7,0.48 -3.63,-0.24 -6.28,-0.97 -7.97,-1.93 -1.69,-0.97 -3.14,-2.18 -4.11,-3.38 -0.96,-1.45 -1.44,-2.9 -1.69,-4.35 -0.24,-2.17 -0.24,-5.31 0,-9.42l1.93 -19.8zm-58.67 10.87l0 0 1.45 -6.04 15.7 4.11 -3.87 14.24c-1.93,1.21 -4.34,1.93 -7.72,2.18 -3.14,0.24 -6.04,0 -8.94,-0.73 -3.86,-0.96 -7,-2.65 -9.17,-4.83 -2.42,-2.41 -3.86,-5.31 -4.59,-8.45 -0.48,-3.38 -0.48,-6.76 0.48,-10.14 0.97,-3.62 2.66,-6.76 5.07,-9.42 2.18,-2.41 5.07,-3.86 8.46,-4.58 2.65,-0.73 5.79,-0.49 9.17,0.48 4.35,1.21 7.73,2.9 9.66,5.55 1.93,2.42 2.9,5.56 2.65,8.94l-7.48 -0.48c0,-1.94 -0.48,-3.63 -1.69,-5.08 -1.21,-1.2 -2.66,-2.41 -4.83,-2.89 -3.14,-0.73 -5.79,-0.49 -8.21,0.96 -2.41,1.45 -4.1,4.35 -5.31,8.21 -1.21,4.35 -0.97,7.73 0.24,10.38 1.45,2.66 3.62,4.35 6.52,5.07 1.69,0.49 3.14,0.49 4.83,0.49 1.69,-0.24 3.14,-0.73 4.59,-1.21l1.2 -4.59 -8.21 -2.17zm37.43 -14.97l0 0 -12.56 -2.17 -6.27 36.46 7.24 1.2 2.65 -15.21 1.69 0.24c1.7,0.24 2.9,0.73 3.63,0.97 0.72,0.48 1.2,1.21 1.93,1.93 0.24,0.73 0.96,1.93 1.69,3.62l0 -11.35c-0.73,0 -1.45,-0.24 -2.42,-0.24l-5.31 -0.96 1.45 -9.18 5.8 0.97c0.24,0 0.48,0 0.48,0l0 -6.28z"/>
  <path class="fil2" d="M1320.48 354.94l0 -68.09 29.94 0 0 -119.76 -29.94 59.88 0 -149.46 117.58 0 29.94 344.31 -117.58 0 0 -66.88 -29.94 0zm0 -277.43l0 0 0 149.46 -29.94 59.88 29.94 0 0 68.09 -56.5 0 -23.18 63.26 -72.92 0 0 -78.72 81.37 -175.53 -16.66 0 46.36 -86.44 41.53 0zm-152.6 114.69l0 0 36.46 -86.44 -36.46 -20.29 0 106.73zm-289.98 -33.08l0 0c1.69,-9.9 1.69,-19.56 0,-28.74l0 28.74zm289.98 -73.65l0 0 0 106.73 -4.83 11.59c-71.95,-51.43 -178.19,-4.59 -184.22,49.74 -6.04,56.74 37.18,102.62 147.52,68.33l-37.9 101.41c-145.6,16.18 -202.1,-41.53 -210.55,-108.9l0 -38.15c2.18,-17.62 6.76,-34.77 13.04,-50.7 71.71,-178.2 188.09,-138.11 232.27,-141.49l6.52 -19.8 38.15 21.24zm0 254.01l0 0 -36.46 78.72 36.46 0 0 -78.72zm-420.84 76.55l0 0c77.99,-15.46 154.53,-109.14 77.75,-183.75 29.93,-15.94 48.53,-44.67 53.11,-73.16l0 -28.74c-5.31,-29.69 -28.25,-53.84 -71.46,-54.56l-59.4 -1.21 0 66.16 24.63 0c26.31,0 22.93,68.09 -9.9,68.09l-14.73 0 0 52.15c35.49,6.76 22.94,56.02 0,71.23l0 83.79zm130.86 -139.81l0 0 0 38.15c-1.45,-12.55 -1.45,-25.35 0,-38.15zm-233.72 -203.78l0 0 -48.05 93.2 21.49 -1.69 -57.95 254.25 165.88 0c7.24,0 14.25,-0.73 21.49,-2.17l0 -83.79c-4.11,2.9 -8.69,4.59 -13.28,4.59l-59.64 0 19.8 -76.54 44.67 0c3.14,0 6.03,0.24 8.45,0.72l0 -52.15 -41.53 0 16.66 -68.09 24.87 0 0 -66.16 -102.86 -2.17z"/>
 </g>
</svg>
