<?xml version="1.0" encoding="UTF-8"?>
<!DOCTYPE svg PUBLIC "-//W3C//DTD SVG 1.1//EN" "http://www.w3.org/Graphics/SVG/1.1/DTD/svg11.dtd">
<!-- Creator: CorelDRAW 2019 (64-Bit) -->
<svg xmlns="http://www.w3.org/2000/svg" xml:space="preserve" width="565px" height="480px" version="1.1" style="shape-rendering:geometricPrecision; text-rendering:geometricPrecision; image-rendering:optimizeQuality; fill-rule:evenodd; clip-rule:evenodd"
viewBox="0 0 565 479.62"
 xmlns:xlink="http://www.w3.org/1999/xlink"
 xmlns:xodm="http://www.corel.com/coreldraw/odm/2003">
 <defs>
  <style type="text/css">
   <![CDATA[
    .fil0 {fill:#1F4396}
   ]]>
  </style>
 </defs>
 <g id="Layer_x0020_1">
  <metadata id="CorelCorpID_0Corel-Layer"/>
  <path class="fil0" d="M112.13 48.9c0,-27.01 21.89,-48.9 48.9,-48.9l243.24 0c27.01,0 48.9,21.89 48.9,48.9l0 243.25c0,27 -21.89,48.9 -48.9,48.9l-243.24 0c-27.01,0 -48.9,-21.9 -48.9,-48.9l0 -243.25zm59.49 258.73c-14.4,0 -26.08,-11.68 -26.08,-26.08l0 -221.97c0,-14.4 11.68,-26.08 26.08,-26.08l29.75 0c39.2,0 68.23,39.72 43.16,64.83l-72.74 72.83 62.43 65.4c30.26,31.71 -5.18,71.07 -38.76,71.07l-23.84 0zm94.4 -274.13l25.14 0c39.2,0 68.23,39.72 43.16,64.83l-72.74 72.83 133.72 136.42 -141.11 -0.03c30.32,0 49.46,-51.01 17.01,-84.79l-49.56 -51.6 57.69 -59.46c31.06,-32.03 8.52,-73.22 -13.31,-78.2zm153.7 248.05l-108.29 -110.39 57.69 -59.46c31.06,-32.03 8.52,-73.22 -13.31,-78.2l37.78 0c14.41,0 26.08,11.68 26.08,26.08l0.05 221.97zm-397.65 162.58l0 19.88 8.88 0c4.6,0 8.1,-0.86 10.47,-2.59 2.39,-1.72 3.58,-4.23 3.58,-7.53 0,-3.25 -1.09,-5.69 -3.28,-7.32 -2.18,-1.62 -5.43,-2.44 -9.76,-2.44l-9.89 0zm0 -33.9l0 18.9 6.85 0c4.77,0 8.34,-0.8 10.7,-2.41 2.36,-1.61 3.55,-4.07 3.55,-7.36 0,-2.99 -1.11,-5.25 -3.34,-6.8 -2.22,-1.55 -5.5,-2.33 -9.83,-2.33l-7.93 0zm-22.07 -15.24l34.64 0c10.25,0 17.94,1.83 23.1,5.51 5.16,3.67 7.74,9.14 7.74,16.41 0,4.89 -1.35,8.95 -4.05,12.19 -2.7,3.23 -6.63,5.57 -11.79,7 5.8,1.07 10.25,3.34 13.37,6.81 3.11,3.48 4.67,7.91 4.67,13.31 0,7.94 -2.84,13.82 -8.52,17.65 -5.67,3.83 -14.42,5.75 -26.24,5.75l-32.92 0 0 -84.63zm116 18.87l-10.95 31.74 21.55 0 -10.6 -31.74zm-13.16 -18.87l27.22 0 32.03 84.63 -24.11 0 -6.02 -17.93 -32.57 0 -6.31 17.93 -22.32 0 32.08 -84.63zm64.13 0l28.16 0 24.51 50.74c0.83,1.71 1.81,4.08 2.92,7.12 1.11,3.03 2.34,6.76 3.69,11.17 -0.72,-4.17 -1.24,-8.01 -1.58,-11.5 -0.34,-3.49 -0.51,-6.69 -0.51,-9.59l0 -47.94 20.37 0 0 84.63 -28.04 0 -25.47 -52.59c-1.19,-2.42 -2.28,-5.05 -3.27,-7.89 -0.99,-2.84 -1.9,-5.93 -2.73,-9.26 0.79,5.04 1.37,9.68 1.75,13.9 0.38,4.23 0.57,7.95 0.57,11.17l0 44.67 -20.37 0 0 -84.63zm93.58 0l22.56 0 0 36.57 26.2 -36.57 25.26 0 -31.09 38.89 34.26 45.74 -28.03 0 -26.6 -39.25 0 39.25 -22.56 0 0 -84.63zm142.84 49.14l0 19.88 8.87 0c4.61,0 8.1,-0.86 10.48,-2.59 2.38,-1.72 3.57,-4.23 3.57,-7.53 0,-3.25 -1.09,-5.69 -3.27,-7.32 -2.18,-1.62 -5.44,-2.44 -9.76,-2.44l-9.89 0zm0 -33.9l0 18.9 6.85 0c4.77,0 8.33,-0.8 10.69,-2.41 2.37,-1.61 3.55,-4.07 3.55,-7.36 0,-2.99 -1.11,-5.25 -3.34,-6.8 -2.22,-1.55 -5.5,-2.33 -9.83,-2.33l-7.92 0zm-22.08 -15.24l34.65 0c10.24,0 17.94,1.83 23.1,5.51 5.16,3.67 7.74,9.14 7.74,16.41 0,4.89 -1.35,8.95 -4.05,12.19 -2.7,3.23 -6.63,5.57 -11.79,7 5.79,1.07 10.24,3.34 13.36,6.81 3.11,3.48 4.67,7.91 4.67,13.31 0,7.94 -2.84,13.82 -8.51,17.65 -5.67,3.83 -14.43,5.75 -26.25,5.75l-32.92 0 0 -84.63zm103.08 14.88l0 21.7 7.91 0c4.88,0 8.54,-0.88 10.99,-2.65 2.44,-1.77 3.66,-4.42 3.66,-7.96 0,-3.82 -1.36,-6.62 -4.08,-8.41 -2.72,-1.79 -7.02,-2.68 -12.89,-2.68l-5.59 0zm-22.07 -14.88l33.61 0c11.21,0 19.53,1.82 24.95,5.45 5.42,3.63 8.14,9.16 8.14,16.59 0,5.48 -1.43,9.99 -4.3,13.52 -2.86,3.54 -7,5.9 -12.4,7.09 4.45,1.63 8.03,6.25 10.73,13.87l10.11 28.11 -23.53 0 -7.45 -23.16c-1.19,-3.74 -2.81,-6.32 -4.88,-7.74 -2.06,-1.44 -5.28,-2.15 -9.64,-2.15l-3.27 0 0 33.05 -22.07 0 0 -84.63zm80.12 0l22.56 0 0 84.63 -22.56 0 0 -84.63z"/>
 </g>
</svg>
