<?xml version="1.0" encoding="UTF-8"?>
<!DOCTYPE svg PUBLIC "-//W3C//DTD SVG 1.1//EN" "http://www.w3.org/Graphics/SVG/1.1/DTD/svg11.dtd">
<!-- Creator: CorelDRAW X5 -->
<svg xmlns="http://www.w3.org/2000/svg" xml:space="preserve" width="97.2898mm" height="40.64mm" style="shape-rendering:geometricPrecision; text-rendering:geometricPrecision; image-rendering:optimizeQuality; fill-rule:evenodd; clip-rule:evenodd"
viewBox="0 0 9729 4064"
 xmlns:xlink="http://www.w3.org/1999/xlink">
 <defs>
  <style type="text/css">
   <![CDATA[
    .fil0 {fill:#25387B}
    .fil1 {fill:#DF2128}
    .fil3 {fill:#25387B;fill-rule:nonzero}
    .fil2 {fill:#25387C;fill-rule:nonzero}
   ]]>
  </style>
 </defs>
 <g id="__x0023_Layer_x0020_1">
  <metadata id="CorelCorpID_0Corel-Layer"/>
  <polygon class="fil0" points="6405,2919 7017,0 9304,0 9151,730 8007,730 7931,1095 8904,1095 8751,1824 7778,1824 7702,2189 8845,2189 8692,2919 "/>
  <path class="fil1" d="M0 2919c2034,-973 4786,-1593 7297,-1824 678,-62 1350,-97 2286,-97 36,0 97,-12 146,-24l-189 900c-10,49 -91,73 -152,73 -5736,0 -9169,973 -9169,973l-219 0z"/>
  <polygon class="fil0" points="3080,2919 3692,0 4787,0 5438,1326 5716,0 6810,0 6198,2919 5104,2919 4463,1545 4175,2919 "/>
  <path class="fil0" d="M2034 1703l357 -1703 1095 0 -428 2043c-133,632 -625,876 -1278,876l-806 0 184 -876 365 0c267,0 462,-97 513,-340z"/>
  <polygon class="fil2" points="5543,3888 5566,3733 5810,3733 5832,3569 5589,3569 5605,3446 5857,3446 5879,3282 5488,3282 5384,4052 5794,4052 5816,3888 "/>
  <path class="fil2" d="M6404 3282l-170 0 -80 140c-12,21 -26,47 -42,77 -12,-40 -19,-62 -21,-66l-51 -151 -145 0 123 378 -220 391 173 0 71 -124c16,-29 30,-53 40,-73 6,20 13,44 22,72l40 124 154 0 -122 -363 228 -406z"/>
  <path class="fil2" d="M6795 3486c0,-42 -6,-79 -19,-110 -13,-33 -32,-57 -55,-72 -23,-14 -54,-22 -92,-22l-209 0 -104 769 139 0 37 -277 43 0c44,0 73,-2 90,-5 29,-6 52,-16 70,-28 18,-12 34,-30 49,-53 15,-23 27,-52 36,-89 10,-36 14,-74 14,-113zm-258 -42l0 0 51 0c40,0 49,4 50,5 5,3 9,8 12,15 4,8 6,20 6,35 0,23 -4,44 -13,63 -8,18 -18,30 -32,38 -8,4 -30,12 -92,12l-6 0 23 -167z"/>
  <path class="fil2" d="M7164 3782c-7,-18 -14,-34 -22,-47 40,-14 72,-40 94,-77 26,-43 39,-98 39,-164 0,-46 -7,-86 -20,-119 -14,-35 -34,-59 -58,-73 -23,-13 -54,-20 -94,-20l-227 0 -104 769 139 0 41 -301 21 0c23,0 30,5 32,8 9,9 22,32 37,86 24,86 40,150 49,190l3 17 148 0 -7 -26c-27,-104 -51,-186 -73,-243zm-171 -336l0 0 88 0c33,0 41,6 41,6 9,9 14,24 14,44 0,19 -4,38 -12,55 -8,17 -18,28 -31,36 -8,4 -30,12 -93,12l-27 0 21 -153z"/>
  <polygon class="fil3" points="7694,3733 7716,3569 7473,3569 7490,3446 7741,3446 7763,3282 7373,3282 7269,4052 7678,4052 7701,3888 7428,3888 7451,3733 "/>
  <path class="fil2" d="M7986 3431c21,0 35,6 45,19 11,15 18,38 20,69l1 21 134 -9 -1 -21c-3,-71 -21,-128 -54,-172 -34,-45 -83,-68 -145,-68 -61,0 -109,23 -141,69 -31,44 -47,99 -47,164 0,37 5,71 16,99 11,29 26,53 45,72 18,17 45,38 83,64 45,30 58,43 62,48 9,11 13,25 13,42 0,20 -5,36 -16,50 -10,12 -27,18 -52,18 -40,0 -53,-16 -60,-28 -4,-7 -11,-27 -12,-82l-1 -22 -133 11 0 19c-1,51 5,96 18,136 14,42 37,75 70,98 33,24 73,35 117,35 65,0 117,-26 154,-77 35,-49 53,-108 53,-177 0,-56 -12,-103 -36,-139 -17,-25 -52,-56 -109,-94 -42,-28 -58,-44 -65,-52 -8,-10 -11,-23 -11,-39 0,-17 4,-31 13,-42 7,-9 21,-14 40,-14z"/>
  <path class="fil2" d="M8461 3578c-42,-28 -58,-44 -65,-52 -8,-10 -11,-23 -11,-39 0,-17 4,-31 13,-42 7,-9 21,-14 41,-14 20,0 35,6 44,19 11,15 18,38 20,69l2 21 134 -9 -1 -21c-3,-71 -21,-128 -54,-172 -34,-45 -83,-68 -145,-68 -61,0 -109,23 -142,69 -31,44 -47,99 -47,164 0,37 5,71 16,99 11,29 26,53 45,72 18,17 45,38 83,64 45,30 58,43 62,48 9,11 13,25 13,42 0,20 -5,36 -16,50 -10,12 -27,18 -52,18 -40,0 -53,-16 -60,-28 -4,-7 -11,-27 -12,-82l-1 -22 -133 11 0 19c-1,51 5,96 18,136 14,42 37,75 70,98 33,24 73,35 117,35 65,0 117,-26 154,-77 35,-49 53,-108 53,-177 0,-56 -12,-103 -36,-139 -16,-25 -52,-56 -109,-94z"/>
 </g>
</svg>
