<?xml version="1.0" encoding="UTF-8"?>
<!DOCTYPE svg PUBLIC "-//W3C//DTD SVG 1.1//EN" "http://www.w3.org/Graphics/SVG/1.1/DTD/svg11.dtd">
<!-- Creator: CorelDRAW X5 -->
<svg xmlns="http://www.w3.org/2000/svg" xml:space="preserve" width="198.042mm" height="40.64mm" style="shape-rendering:geometricPrecision; text-rendering:geometricPrecision; image-rendering:optimizeQuality; fill-rule:evenodd; clip-rule:evenodd"
viewBox="0 0 19804 4064"
 xmlns:xlink="http://www.w3.org/1999/xlink">
 <defs>
  <style type="text/css">
   <![CDATA[
    .str0 {stroke:#332C2B;stroke-width:7.62001}
    .fil0 {fill:none}
    .fil2 {fill:#0632AD}
    .fil1 {fill:red}
   ]]>
  </style>
 </defs>
<symbol id="format_x0020_logo_x0020_utk_x0020_jpg" viewBox="566 -7716 18672 19496">
 <rect class="fil0 str0" x="570" y="-7712" width="18665" height="19488"/>
</symbol>
 <g id="Layer_x0020_1">
  <metadata id="CorelCorpID_0Corel-Layer"/>
  <path class="fil1" d="M1225 3404c318,303 747,488 1214,488 467,0 896,-184 1217,-488l235 0c-360,408 -878,661 -1452,661 -574,0 -1092,-253 -1452,-661l238 0zm330 0c60,42 125,80 190,113 45,-42 95,-80 146,-113l199 0c-9,3 -18,9 -24,12 -33,15 -62,33 -92,51 -45,27 -86,60 -128,95 181,77 384,119 592,119 208,0 411,-42 592,-119 -42,-36 -83,-68 -128,-95 -30,-18 -60,-36 -92,-51 -6,-3 -15,-9 -24,-12l199 0c0,0 0,0 0,0 51,33 101,71 146,113 65,-36 131,-71 190,-113l161 0c-86,68 -178,131 -277,181 -33,18 -65,36 -98,51 -205,89 -431,140 -669,140 -238,0 -464,-51 -669,-140 -33,-15 -65,-33 -98,-51 -98,-51 -190,-113 -277,-181l161 0z"/>
  <path class="fil1" d="M775 2743c101,253 256,479 449,660l-238 0c-170,-190 -303,-414 -393,-660l181 0zm223 0c80,176 190,333 324,467 71,-80 152,-155 235,-217 -42,-77 -77,-161 -110,-250l95 0c27,68 57,137 89,196 33,-18 62,-39 95,-57l-125 -140 208 0 48 74c24,-9 48,-18 74,-30 -6,-15 -9,-30 -12,-45l77 0c3,6 3,15 6,21 24,-6 51,-15 74,-21l720 0c24,6 51,15 74,21 3,-6 3,-15 6,-21l77 0c-3,15 -6,30 -12,45 107,42 205,92 300,152 33,-60 62,-128 89,-196l95 0c-33,89 -68,173 -110,250 83,62 164,137 235,217 134,-134 244,-292 324,-467l104 0c-89,202 -214,387 -366,541 -21,21 -45,42 -68,62 -21,18 -42,39 -65,57l-161 0c57,-39 113,-83 164,-128 -65,-74 -140,-140 -217,-196 -80,128 -176,238 -283,324l-199 0c-30,-12 -60,-24 -89,-36 -27,-6 -51,-15 -77,-21 -57,-12 -119,-18 -181,-18 -62,0 -125,6 -182,18 -27,6 -51,15 -77,21 -30,12 -60,24 -89,36l-199 0c-107,-86 -202,-196 -283,-324 -77,57 -152,122 -217,196 51,45 107,89 164,128l-161 0c-24,-18 -45,-39 -65,-57 -24,-21 -48,-42 -68,-62 -152,-155 -277,-339 -366,-541l104 0zm3285 0c-89,247 -223,470 -393,660l-235 0c190,-181 345,-408 446,-660l182 0zm-2600 286c83,134 182,244 292,327 48,-27 98,-48 149,-65 -65,-104 -122,-241 -167,-399 -15,6 -30,9 -45,18l21 30 -92 0c-54,27 -107,57 -158,89zm1220 327c110,-83 208,-193 292,-327 -86,-57 -179,-101 -274,-137 -45,158 -101,295 -167,399 51,18 101,39 149,65zm-875 -488c45,164 101,300 167,402 77,-21 161,-33 244,-33 83,0 167,12 244,33 65,-101 122,-238 167,-402 -131,-42 -268,-62 -411,-62 -143,0 -280,21 -411,62z"/>
  <path class="fil1" d="M1549 1752l-62 98 366 18c3,-39 6,-77 9,-116l77 0c-3,39 -3,77 -6,119l509 24 140 -143 173 0 -167 253 155 253 -149 0 -164 -149 -500 21c6,223 30,431 68,613l-77 0c-39,-184 -62,-390 -68,-610l-405 18 363 592 -208 0 -65 -71 -18 0c9,24 15,48 24,71l-95 0c-9,-24 -15,-48 -24,-71l-24 0 -83 -110 74 -6c-3,-21 -9,-39 -12,-59l-30 -30 -131 0 -95 -122 110 -9 -158 -173c-80,0 -155,3 -226,3l-95 6 -110 3 -170 12c-122,6 -232,12 -339,15 -51,0 -173,9 -125,-92 39,-80 131,-190 217,-232 95,-45 161,-74 256,-77 208,-6 640,45 640,45l83 -92 342 0zm1467 0c6,51 9,104 9,158l-80 0c0,-54 -3,-107 -6,-158l77 0zm515 0c6,51 12,104 15,158l-92 0c-3,-54 -9,-107 -15,-158l92 0zm577 0c6,51 12,104 18,158l-95 0c-6,-54 -12,-107 -21,-158l98 0zm280 0c6,51 12,104 15,158l-167 0c-3,-54 -9,-107 -18,-158l170 0zm-3793 991c-45,-128 -80,-259 -101,-399l170 0c24,140 62,274 113,399l-181 0zm300 0c-54,-125 -95,-259 -119,-399l95 0c27,140 71,274 128,399l-104 0zm1184 0c116,-30 235,-45 360,-45 125,0 244,15 360,45l-720 0zm800 0c36,-176 59,-375 65,-586l80 0c-6,211 -30,408 -68,586l-77 0zm455 0c65,-176 107,-375 119,-586l92 0c-12,208 -54,408 -116,586l-95 0zm544 0c83,-179 137,-378 152,-586l95 0c-15,208 -65,405 -143,586l-104 0zm223 0c74,-181 119,-381 134,-586l167 0c-12,205 -54,402 -119,586l-182 0zm-1086 -756l1996 0 0 92 -1996 0 0 -92z"/>
  <path class="fil1" d="M1207 1752l60 -68 -113 -9 95 -122 134 0c6,-30 15,-60 21,-89l-54 -3 83 -110 6 0c33,-101 74,-193 119,-277 -83,-65 -164,-137 -235,-217 -211,211 -366,485 -434,791l-98 0c170,-779 842,-1360 1648,-1360 839,0 1538,634 1669,1464l-98 0c-57,-348 -220,-661 -455,-896 -71,80 -152,152 -235,217 104,193 179,425 211,678l-92 0c-30,-235 -98,-446 -193,-628 -95,62 -193,113 -300,152 36,146 59,303 71,476l-77 0c-12,-164 -36,-315 -65,-452 -137,45 -283,68 -434,68 -152,0 -298,-24 -434,-68 -30,137 -54,289 -65,452l-77 0c12,-173 36,-330 71,-476 -24,-9 -48,-18 -68,-27l-315 503 -342 0zm1375 0l6 -9 170 0 -3 9 -173 0zm1636 0c-131,-893 -878,-1577 -1779,-1577 -866,0 -1589,631 -1761,1473l-170 0c173,-940 973,-1648 1931,-1648 994,0 1815,762 1949,1752l-170 0zm-2609 -768c80,-128 176,-238 283,-321 -51,-36 -101,-71 -146,-113 -128,62 -247,146 -354,241 65,71 140,137 217,193zm366 -384c30,18 60,36 92,51 36,18 74,33 116,45 24,9 48,15 74,21 60,12 119,21 182,21 62,0 122,-9 181,-21 27,-6 51,-12 74,-21 42,-12 80,-27 116,-45 33,-15 62,-33 92,-51 45,-30 86,-62 128,-98 -182,-74 -384,-116 -592,-116 -208,0 -411,42 -592,116 42,36 83,68 128,98zm0 110c-110,83 -208,193 -292,327 39,24 74,45 116,65l18 -21 152 0 -48 77 36 15c45,-161 104,-295 170,-399 -54,-18 -104,-39 -152,-65zm-342 414c-36,71 -68,146 -98,226l39 0 155 -170c-33,-18 -62,-36 -95,-57zm1562 -86c-83,-134 -181,-244 -292,-327 -48,27 -98,48 -152,65 65,104 125,238 170,399 95,-36 187,-83 274,-137zm-208 -375c107,83 202,193 283,321 77,-57 152,-122 217,-193 -107,-95 -226,-178 -354,-241 -45,42 -95,77 -146,113zm-791 134c-65,98 -122,235 -167,402 131,42 268,62 411,62 143,0 280,-21 411,-62 -45,-167 -101,-303 -167,-402 -77,21 -161,30 -244,30 -83,0 -167,-9 -244,-30z"/>
  <path class="fil2" d="M16549 3686l408 -2484 461 0c-280,-80 -470,-238 -470,-422 0,-262 390,-476 875,-476 482,0 872,214 872,476 0,184 -190,342 -470,422l366 0 -411 2484 -1630 0zm-4968 0l589 -3383 1633 0 -592 3383 -1630 0zm-2097 0l408 -2484 464 0c-280,-80 -473,-238 -473,-422 0,-262 393,-476 875,-476 482,0 875,214 875,476 0,184 -193,342 -473,422l366 0 -411 2484 -1630 0zm-3076 0l437 -2454 -1047 0 167 -955 3653 0 -176 955 -964 0 -440 2454 -1630 0z"/>
  <path class="fil1" d="M19298 544l0 140 57 0c36,0 62,-3 77,-15 15,-12 24,-30 24,-54 0,-24 -9,-42 -27,-54 -15,-12 -42,-18 -80,-18l-51 0zm-119 -77l190 0c68,0 122,12 158,36 36,24 51,60 51,107 0,33 -9,60 -27,83 -21,21 -45,39 -80,45l110 220 -131 0 -95 -199 -57 0 0 199 -119 0 0 -491zm181 -113c-51,0 -95,9 -140,27 -42,18 -80,42 -116,77 -36,36 -62,77 -83,122 -18,45 -30,92 -30,140 0,51 12,95 30,140 18,45 45,83 77,119 36,36 74,62 122,80 45,21 92,30 140,30 48,0 92,-9 137,-27 48,-21 86,-45 125,-80 33,-33 60,-71 77,-116 21,-45 30,-89 30,-137 0,-54 -9,-101 -27,-146 -18,-45 -45,-83 -77,-119 -36,-36 -77,-65 -122,-83 -45,-18 -92,-27 -143,-27zm0 -74c60,0 119,12 173,33 54,24 101,57 143,101 42,39 74,86 95,140 21,54 33,110 33,170 0,60 -12,116 -36,170 -21,54 -54,101 -95,143 -42,42 -92,71 -146,95 -54,21 -110,33 -167,33 -60,0 -116,-12 -170,-36 -54,-21 -101,-54 -146,-98 -39,-42 -71,-89 -92,-140 -21,-54 -33,-110 -33,-167 0,-42 6,-80 15,-119 12,-39 27,-74 51,-110 39,-68 92,-122 158,-158 65,-39 137,-57 217,-57z"/>
  <polygon class="fil1" points="14836,351 16728,351 15118,1990 16166,3686 14199,3686 13202,2053 "/>
 </g>
</svg>
